HIERARCHY
ROOT Hips
{
	OFFSET 0.000000 0.000000 0.000000 
	CHANNELS 6 Xposition Yposition Zposition Yrotation Zrotation Xrotation 
	JOINT Lumbar
	{
		OFFSET 0.000000 0.000000 0.000000 
		CHANNELS 3 Zrotation Xrotation Yrotation
		JOINT Neck
		{
			OFFSET 0.000000 0.445665 0.000000 
			CHANNELS 3 Zrotation Xrotation Yrotation
			End Site
			{
				OFFSET 0.000000 0.227535 0.000000 
			}
		}
		JOINT RightShoulder
		{
			OFFSET 0.019635 0.377685 0.194865 
			CHANNELS 3 Zrotation Xrotation Yrotation
			JOINT RightElbow
			{
				OFFSET 0.000000 -0.243375 0.000000 
				CHANNELS 2 Zrotation Yrotation
				JOINT RightWrist
				{
					OFFSET 0.000000 -0.264825 0.000000 
					CHANNELS 2 Zrotation Xrotation
					End Site
					{
						OFFSET 0.006600 -0.176220 0.000990 
					}
				}
			}
		}
		JOINT LeftShoulder
		{
			OFFSET 0.019635 0.377685 -0.194865 
			CHANNELS 3 Zrotation Xrotation Yrotation
			JOINT LeftElbow
			{
				OFFSET 0.000000 -0.243375 0.000000 
				CHANNELS 2 Zrotation Yrotation
				JOINT LeftWrist
				{
					OFFSET 0.000000 -0.264825 0.000000 
					CHANNELS 2 Zrotation Xrotation
					End Site
					{
						OFFSET 0.006600 -0.176220 -0.000990 
					}
				}
			}
		}
	}
	JOINT RightHip
	{
		OFFSET 0.052140 -0.069960 0.075570 
		CHANNELS 3 Zrotation Xrotation Yrotation
		JOINT RightKnee
		{
			OFFSET 0.000000 -0.402270 0.000000 
			CHANNELS 1 Zrotation
			JOINT RightAnkle
			{
				OFFSET 0.000000 -0.404085 0.000000 
				CHANNELS 3 Zrotation Xrotation Yrotation
				End Site
				{
					OFFSET 0.204105 -0.089430 0.008415 
				}
			}
		}
	}
	JOINT LeftHip
	{
		OFFSET 0.052140 -0.069960 -0.075570 
		CHANNELS 3 Zrotation Xrotation Yrotation
		JOINT LeftKnee
		{
			OFFSET 0.000000 -0.402270 0.000000 
			CHANNELS 1 Zrotation
			JOINT LeftAnkle
			{
				OFFSET 0.000000 -0.404085 0.000000 
				CHANNELS 3 Zrotation Xrotation Yrotation
				End Site
				{
					OFFSET 0.204105 -0.089430 -0.008415 
				}
			}
		}
	}
}
MOTION
Frames: 28
Frame Time: 0.02
9e-05 1e-05 -0.0001 23.47805 -22.92115 -7.23655 42.54818 2.10203 -4.7166 -13.58975 -0.94365 -1.26038 75.01148 -100.35023 55.63411 5.78693 101.80027 11.94779 2.49623 59.3036 100.1541 -55.63141 5.79103 -94.05962 9.43468 -0.49592 38.31403 -4.60315 -9.1815 -22.61573 -6.7557 -2.15962 -3.29219 42.85642 9.19846 3.00106 -27.80736 -6.61797 1.67982 3.04295
0.00016 3e-05 -0.00016 23.47766 -22.93871 -7.23406 42.56027 2.09902 -4.73834 -13.58582 -0.94611 -1.26061 74.96069 -100.35947 55.63411 5.78693 101.81414 11.94718 2.48122 59.37569 100.14212 -55.63142 5.79097 -94.08701 9.43805 -0.50017 38.32383 -4.6259 -9.27633 -22.6163 -6.75507 -2.15468 -3.28929 42.8676 9.21867 3.09934 -27.80705 -6.6191 1.67176 3.04011
0.00024 5e-05 -0.00022 23.47726 -22.95623 -7.23158 42.57235 2.09601 -4.76002 -13.58188 -0.94856 -1.26083 74.90976 -100.3687 55.63411 5.78693 101.82796 11.94659 2.46619 59.44726 100.13022 -55.63142 5.79091 -94.11429 9.44138 -0.50437 38.33359 -4.64857 -9.37085 -22.61686 -6.75443 -2.14975 -3.28639 42.87874 9.23883 3.19741 -27.80675 -6.62023 1.66373 3.03728
0.00031 7e-05 -0.00027 23.47687 -22.97375 -7.22909 42.5844 2.09301 -4.7817 -13.57795 -0.95101 -1.26106 74.85907 -100.37791 55.63411 5.78693 101.84179 11.94598 2.45121 59.51908 100.11829 -55.63142 5.79085 -94.1416 9.44473 -0.5086 38.34336 -4.67124 -9.46538 -22.61742 -6.75379 -2.14483 -3.2835 42.88989 9.25898 3.2954 -27.80644 -6.62135 1.6557 3.03444
0.00039 9e-05 -0.00033 23.4765 -22.99128 -7.2266 42.59644 2.09 -4.80342 -13.57404 -0.95349 -1.26129 74.80867 -100.38711 55.63411 5.78693 101.85568 11.94536 2.43626 59.59151 100.10627 -55.63143 5.79079 -94.16903 9.44812 -0.51289 38.35317 -4.694 -9.56024 -22.61799 -6.75316 -2.1399 -3.2806 42.90108 9.27916 3.39355 -27.80613 -6.62249 1.64764 3.03161
0.00046 0.00011 -0.00038 23.47601 -23.00879 -7.22414 42.60863 2.08699 -4.82504 -13.57004 -0.95589 -1.26151 74.75664 -100.39644 55.63411 5.78693 101.86934 11.94483 2.42107 59.66128 100.09461 -55.63143 5.79074 -94.19601 9.45132 -0.51689 38.36286 -4.71648 -9.65404 -22.61852 -6.75252 -2.13498 -3.27771 42.9121 9.29931 3.49143 -27.80583 -6.62359 1.63964 3.02878
0.00054 0.00013 -0.00044 23.47577 -23.02633 -7.22162 42.62049 2.08399 -4.84684 -13.56622 -0.95842 -1.26174 74.70789 -100.40549 55.63411 5.78693 101.88345 11.94412 2.40638 59.73633 100.08224 -55.63143 5.79067 -94.22386 9.45491 -0.52148 38.37277 -4.73948 -9.74983 -22.61914 -6.75189 -2.13004 -3.2748 42.92346 9.3195 3.58978 -27.80552 -6.62475 1.63155 3.02594
0.00061 0.00015 -0.00049 23.47529 -23.04384 -7.21915 42.63265 2.08098 -4.86846 -13.56223 -0.96084 -1.26197 74.65622 -100.41478 55.63411 5.78693 101.89716 11.94358 2.39125 59.80649 100.07052 -55.63144 5.79062 -94.25089 9.45814 -0.52552 38.38246 -4.76202 -9.84387 -22.61967 -6.75125 -2.12512 -3.27192 42.9345 9.33964 3.68765 -27.80522 -6.62586 1.62354 3.02311
0.00069 0.00017 -0.00055 23.47455 -23.06133 -7.21675 42.64522 2.07797 -4.88992 -13.55805 -0.96309 -1.26219 74.60046 -100.42445 55.63411 5.78693 101.91031 11.94323 2.37545 59.87073 100.05963 -55.63144 5.79056 -94.277 9.4609 -0.5289 38.39195 -4.78394 -9.93547 -22.6201 -6.75059 -2.12022 -3.26905 42.9452 9.35978 3.78515 -27.80493 -6.62692 1.61564 3.0203
0.00075 0.00019 -0.0006 23.47541 -23.07901 -7.21397 42.65558 2.075 -4.91248 -13.555 -0.96623 -1.26242 74.56665 -100.43218 55.63411 5.78693 101.92646 11.94171 2.36313 59.96922 100.04405 -55.63144 5.79048 -94.30868 9.46628 -0.53614 38.4028 -4.80923 -10.0402 -22.62112 -6.75003 -2.11518 -3.26605 42.958 9.3801 3.88545 -27.80455 -6.6283 1.60713 3.01737
0.00085 0.00021 -0.00066 23.47285 -23.0962 -7.21198 42.6705 2.07194 -4.93261 -13.54957 -0.96753 -1.26265 74.48761 -100.44385 55.63411 5.78693 101.93641 11.9427 2.34368 59.99534 100.03832 -55.63144 5.79046 -94.32842 9.46618 -0.53517 38.41067 -4.82755 -10.11781 -22.62091 -6.74926 -2.11045 -3.26333 42.96626 9.39994 3.97941 -27.80437 -6.629 1.59991 3.0147
0.00107 0.00024 -0.00076 23.46124 -23.11284 -7.21233 42.69869 2.06867 -4.94695 -13.53758 -0.96346 -1.26287 74.27457 -100.46767 55.63411 5.78693 101.92832 11.95039 2.3029 59.82216 100.06012 -55.63143 5.79058 -94.31675 9.45059 -0.5119 38.41112 -4.82548 -10.11524 -22.61715 -6.74793 -2.10647 -3.26132 42.9629 9.41922 4.05936 -27.80483 -6.62791 1.59604 3.01259
0.00133 0.00028 -0.00087 23.44617 -23.12884 -7.21344 42.73129 2.06532 -4.95871 -13.52323 -0.95758 -1.2631 74.01823 -100.49517 55.63411 5.78693 101.91421 11.96062 2.25535 59.57666 100.09167 -55.63142 5.79076 -94.29295 9.42957 -0.48035 38.40843 -4.81659 -10.08632 -22.61219 -6.74639 -2.10282 -3.2596 42.95484 9.43789 4.13238 -27.80548 -6.62614 1.5935 3.01075
0.00157 0.00031 -0.00097 23.43246 -23.14463 -7.21407 42.76136 2.06199 -4.97109 -13.50999 -0.95273 -1.26333 73.78773 -100.52012 55.63411 5.78693 101.90348 11.9698 2.21197 59.36447 100.11845 -55.63141 5.79092 -94.27368 9.41134 -0.45241 38.40667 -4.81168 -10.07348 -22.60792 -6.74494 -2.09909 -3.25779 42.94838 9.45629 4.20624 -27.806 -6.62464 1.59047 3.00888
0.00181 0.00035 -0.00108 23.41958 -23.16255 -7.21523 42.79371 2.05871 -4.98576 -13.49656 -0.94702 -1.26353 73.52985 -100.54887 55.63411 5.78693 101.88992 11.97859 2.16366 59.14938 100.14683 -55.6314 5.79105 -94.25811 9.39177 -0.42501 38.40701 -4.80321 -10.04402 -22.60305 -6.74351 -2.09511 -3.25582 42.94416 9.4769 4.28951 -27.80671 -6.62328 1.58694 3.00661
0.00205 0.00038 -0.00119 23.40425 -23.17584 -7.21552 42.8223 2.05532 -4.9951 -13.48301 -0.94264 -1.26379 73.32036 -100.57046 55.63411 5.78693 101.88097 11.98874 2.12436 58.92428 100.17401 -55.63139 5.79126 -94.23247 9.37368 -0.39464 38.40221 -4.80032 -10.04198 -22.59912 -6.74198 -2.09168 -3.25424 42.93416 9.4929 4.35194 -27.80707 -6.62149 1.58476 3.00522
0.00229 0.00041 -0.00129 23.38225 -23.17667 -7.21281 42.83981 2.05161 -4.98996 -13.46941 -0.94284 -1.26419 73.24116 -100.57223 55.63411 5.78693 101.88494 12.00248 2.1086 58.68065 100.19678 -55.63137 5.7917 -94.17754 9.36131 -0.35726 38.38427 -4.81642 -10.13057 -22.59825 -6.74025 -2.0899 -3.2538 42.90951 9.49528 4.35497 -27.80629 -6.61866 1.5861 3.00632
0.00254 0.00044 -0.0014 23.35809 -23.17281 -7.20927 42.85331 2.0478 -4.97962 -13.45585 -0.94438 -1.26463 73.21465 -100.56651 55.63411 5.78693 101.894 12.01737 2.10264 58.43142 100.21773 -55.63136 5.79222 -94.1137 9.35058 -0.31741 38.36119 -4.83805 -10.24619 -22.59833 -6.73843 -2.08863 -3.25374 42.87918 9.49323 4.33792 -27.80515 -6.61544 1.5887 3.00827
0.00279 0.00047 -0.00151 23.33538 -23.17097 -7.20639 42.86843 2.04407 -4.97192 -13.44247 -0.94502 -1.26505 73.17333 -100.56361 55.63411 5.78693 101.9016 12.03148 2.09422 58.18996 100.23868 -55.63134 5.7927 -94.05689 9.33892 -0.27918 38.34029 -4.85586 -10.34379 -22.59786 -6.73663 -2.08697 -3.25342 42.85134 9.49392 4.33239 -27.80424 -6.61245 1.59067 3.00976
0.00303 0.0005 -0.00162 23.31046 -23.1696 -7.20238 42.88462 2.04021 -4.96298 -13.42811 -0.9468 -1.2655 73.09243 -100.56318 55.63411 5.78693 101.90542 12.04691 2.07735 57.92248 100.26358 -55.63133 5.7932 -93.98717 9.32783 -0.23828 38.32 -4.87885 -10.46432 -22.59787 -6.7349 -2.08593 -3.25344 42.82369 9.49161 4.31651 -27.80307 -6.60923 1.59301 3.01159
0.00328 0.00053 -0.00173 23.2898 -23.16613 -7.20048 42.8975 2.03659 -4.95542 -13.41589 -0.94658 -1.26589 73.10639 -100.55592 55.63411 5.78693 101.91833 12.05964 2.08024 57.7106 100.27955 -55.63132 5.79368 -93.94226 9.31606 -0.20281 38.29719 -4.89258 -10.54429 -22.59712 -6.73302 -2.08376 -3.25287 42.79438 9.49443 4.31748 -27.80234 -6.60639 1.59478 3.01289
0.00352 0.00056 -0.00185 23.28029 -23.1581 -7.20473 42.90273 2.03373 -4.95267 -13.40926 -0.94033 -1.26607 73.3752 -100.53043 55.63411 5.78694 101.95585 12.06629 2.13738 57.63866 100.27224 -55.63131 5.79417 -93.96912 9.30149 -0.18006 38.2692 -4.87822 -10.50195 -22.59395 -6.73068 -2.07796 -3.25036 42.76187 9.51313 4.37016 -27.80297 -6.6047 1.59542 3.01274
0.00377 0.0006 -0.00198 23.27537 -23.1481 -7.2111 42.90463 2.03112 -4.9515 -13.40489 -0.93206 -1.26618 73.73665 -100.49853 55.63411 5.78694 102.0022 12.06986 2.21367 57.62606 100.25576 -55.63132 5.79466 -94.02112 9.28623 -0.16336 38.23879 -4.85461 -10.41854 -22.58999 -6.7282 -2.07109 -3.24729 42.72791 9.53704 4.4404 -27.80405 -6.6034 1.59532 3.01198
0.00401 0.00063 -0.0021 23.26914 -23.13894 -7.21641 42.90769 2.02837 -4.94983 -13.39967 -0.92488 -1.26634 74.05228 -100.47037 55.6341 5.78694 102.04407 12.07372 2.27992 57.59643 100.24282 -55.63131 5.79508 -94.06099 9.27176 -0.14592 38.20915 -4.83608 -10.3567 -22.58643 -6.72583 -2.06496 -3.2446 42.69462 9.5582 4.5025 -27.80488 -6.60193 1.59506 3.01133
0.00426 0.00067 -0.00222 23.2596 -23.12987 -7.22211 42.91212 2.02574 -4.94721 -13.39359 -0.9171 -1.26646 74.38596 -100.43849 55.6341 5.78695 102.0882 12.08227 2.35235 57.52446 100.23253 -55.63131 5.79568 -94.10356 9.25564 -0.12023 38.18064 -4.81409 -10.28414 -22.58272 -6.7233 -2.05776 -3.24137 42.66106 9.58088 4.56479 -27.80585 -6.60042 1.59689 3.01141
0.0045 0.00071 -0.00235 23.25801 -23.12019 -7.22749 42.91297 2.02292 -4.94681 -13.38996 -0.90998 -1.26663 74.70268 -100.41289 55.6341 5.78695 102.12954 12.08036 2.41609 57.55501 100.21449 -55.63131 5.79604 -94.14654 9.24241 -0.11282 38.14935 -4.79694 -10.22306 -22.57915 -6.72105 -2.05256 -3.23914 42.62782 9.6016 4.63088 -27.80667 -6.59909 1.59426 3.00984
0.0047 0.00073 -0.00252 23.27791 -23.10939 -7.23161 42.90469 2.01954 -4.95392 -13.39168 -0.90585 -1.2669 74.95632 -100.40649 55.6341 5.78695 102.16181 12.0497 2.45293 57.85481 100.17792 -55.63133 5.79522 -94.18452 9.24042 -0.15782 38.11033 -4.79633 -10.21012 -22.576 -6.71959 -2.05273 -3.23959 42.59565 9.61661 4.70565 -27.80667 -6.59821 1.57869 3.00357
0.00489 0.00074 -0.0027 23.30553 -23.09804 -7.23531 42.89294 2.01595 -4.96286 -13.39599 -0.90229 -1.26721 75.18876 -100.40649 55.6341 5.78694 102.19075 12.00862 2.47984 58.25683 100.13375 -55.63136 5.7946 -94.22171 9.24074 -0.22047 38.06874 -4.80073 -10.20893 -22.57303 -6.71843 -2.05502 -3.2411 42.56392 9.62938 4.7835 -27.80654 -6.59749 1.55876 2.9957
